# xmcd
#
# Track frame offsets: 
#        182
#        23792
#        46440
#        67832
#        90152
#        114175
#        143230
#        166920
#        194672
#        218980
#        238077
#        260502
#        281947
#        305270
#
# Disc length: 4442 seconds
#
# Revision: 0
# Processed by: cddbd v1.5.1PL0 Copyright (c) Steve Scherf et al.
# Submitted via: ExactAudioCopy v0.95b2
#
DISCID=c411580e
DTITLE=Various Artist - 5 horas de salsa vol 2
DYEAR=1995
DGENRE=Salsa
TTITLE0=Lalo Rodriguez - Ven Devorame Otra Vez
TTITLE1=L'luvia - Eddie Santiago
TTITLE2=Payaso - Andy Montañez
TTITLE3=Tommy Olivencia - Lobo Domesticado
TTITLE4=Cinco Noches - Paquito Guzmán
TTITLE5=Frankie Ruiz - La Rueda
TTITLE6=Eddie Santiago - Que Locura Enamorarme 
TTITLE7=Me Gusta - Andy Montañez
TTITLE8=Lo Dudo - Tommy Olivencia
TTITLE9=Mi Clientela - Willie Chirino
TTITLE10=Mi Amigo El Payaso - Willie Rosario
TTITLE11=Eddie Santiago - Tu Me Haces Falta
TTITLE12=Y Como Lo Hacen - Tommy Olivencia
TTITLE13=Por Alquien Que Se Fue - Gunda Merced 
EXTD=
EXTT0=
EXTT1=
EXTT2=
EXTT3=
EXTT4=
EXTT5=
EXTT6=
EXTT7=
EXTT8=
EXTT9=
EXTT10=
EXTT11=
EXTT12=
EXTT13=
PLAYORDER=
